<?xml version="1.0" encoding="utf-8"?>
<!-- Generator: Adobe Illustrator 22.0.0, SVG Export Plug-In . SVG Version: 6.00 Build 0)  -->
<svg version="1.1" id="Layer_1" xmlns="http://www.w3.org/2000/svg"  x="0px" y="0px"
	 viewBox="0 0 2391.1 658.9" style="enable-background:new 0 0 2391.1 658.9;" xml:space="preserve">
<style type="text/css">
	.st0{fill:#2F2E2D;}
	.st1{fill:#61DAFB;}
	.st2{font-family:'Montserrat-Light';}
	.st3{font-size:277.0487px;}
</style>
<path class="st0" d="M449,129.4H239.3c-7.2,0-13.9,3.8-17.5,10.1L117,321.1c-3.6,6.2-3.6,13.9,0,20.2l104.8,181.6
	c3.6,6.2,10.3,10.1,17.5,10.1H449c7.2,0,13.9-3.8,17.5-10.1l104.8-181.6c3.6-6.2,3.6-13.9,0-20.2L466.4,139.5
	C462.8,133.3,456.2,129.4,449,129.4z"/>
<path class="st1" d="M520.7,335.9L520.7,335.9c0-23.3-29.1-45.3-73.8-59c10.3-45.5,5.7-81.7-14.5-93.3c-4.6-2.7-10-4-16-4v-0.1
	c-19.7,0-45.4,14-71.5,38.4c-26-24.2-51.8-38.1-71.5-38.1v0.1c-0.8,0-1.6,0-2.5,0.1H271v0c-5,0.3-9.6,1.6-13.7,3.9
	c-20.1,11.6-24.6,47.7-14.2,93.1c-44.5,13.7-73.5,35.7-73.5,58.9c0,23.3,29.1,45.3,73.8,59c-10.3,45.5-5.7,81.7,14.5,93.3
	c4.7,2.7,10.1,4,16.1,4c19.7,0,45.4-14,71.5-38.4c26,24.2,51.8,38.1,71.5,38.1c6,0,11.5-1.3,16.2-4c20.1-11.6,24.6-47.7,14.2-93.1
	C491.7,381.1,520.7,359.1,520.7,335.9z M416.4,195.5L416.4,195.5c3.3,0.1,5.9,0.7,8.2,1.9c9.7,5.6,14,26.8,10.7,54.2
	c-0.8,6.7-2.1,13.8-3.6,21c-14-3.4-29.3-6.1-45.4-7.8c-9.7-13.2-19.7-25.3-29.8-35.8C379.7,207.4,401.5,195.5,416.4,195.5z
	 M281.7,372.6c3.4,5.7,6.8,11.3,10.3,16.7c-10.2-1.5-20-3.4-29.3-5.7c2.6-9.2,5.9-18.8,9.7-28.3
	C275.3,361.1,278.4,366.8,281.7,372.6z M262.5,288.2c9.4-2.2,19.3-4.2,29.5-5.7c-3.5,5.5-7,11.2-10.3,17c-3.3,5.7-6.4,11.5-9.3,17.2
	C268.5,307.1,265.2,297.5,262.5,288.2z M280.7,336.1c4.4-9.6,9.4-19.2,14.8-28.6c5.6-9.7,11.3-18.8,17.2-27.3
	c10.7-0.9,21.5-1.4,32.3-1.4c10.8,0,21.6,0.5,32.2,1.4c5.9,8.5,11.7,17.6,17.3,27.2c5.4,9.4,10.4,18.9,14.9,28.5
	c-4.5,9.6-9.4,19.2-14.8,28.6c-5.6,9.7-11.3,18.8-17.2,27.3c-10.7,0.9-21.5,1.4-32.3,1.4c-10.8,0-21.6-0.5-32.2-1.4
	c-5.9-8.5-11.7-17.6-17.3-27.2C290.2,355.2,285.2,345.7,280.7,336.1z M408.5,372.3c3.3-5.7,6.4-11.5,9.3-17.2
	c3.9,9.6,7.2,19.2,9.9,28.5c-9.4,2.3-19.3,4.2-29.5,5.7C401.7,383.8,405.2,378.1,408.5,372.3z M408.5,299.3
	c-3.3-5.7-6.8-11.3-10.3-16.7c10.2,1.5,20,3.4,29.3,5.7c-2.6,9.2-5.9,18.8-9.7,28.3C414.9,310.7,411.8,305,408.5,299.3z
	 M364.8,263.3c-6.4-0.3-13-0.5-19.7-0.5c-6.7,0-13.4,0.1-19.9,0.5c6.4-8.4,13.1-16,19.7-22.9C351.6,247.2,358.2,254.9,364.8,263.3z
	 M265.3,197.7c1.9-1.1,4.2-1.7,6.9-1.8h3.7c14.7,1.2,35.6,12.8,57.7,33.2c-10,10.5-20,22.5-29.6,35.7c-16.2,1.7-31.5,4.4-45.5,7.9
	c-1.6-7.2-2.9-14.1-3.7-20.8C251.5,224.6,255.6,203.4,265.3,197.7z M247.2,379.4c-7.1-2.2-13.8-4.7-20-7.3
	c-25.3-10.8-41.7-25-41.7-36.2c0-11.2,16.4-25.5,41.7-36.2c6.2-2.6,12.9-5,19.8-7.2c4.1,14,9.4,28.6,16.1,43.6
	C256.5,350.9,251.2,365.5,247.2,379.4z M273.8,476.3c-3.2-0.1-5.9-0.7-8.1-1.9h0c-9.7-5.6-14-26.8-10.7-54.2
	c0.8-6.7,2.1-13.8,3.6-21c14,3.4,29.3,6.1,45.4,7.8c9.7,13.2,19.7,25.3,29.8,35.8C310.6,464.5,288.7,476.3,273.8,476.3z
	 M345.3,431.5c-6.7-6.9-13.3-14.5-19.9-22.9c6.4,0.3,13,0.5,19.7,0.5c6.7,0,13.4-0.1,19.9-0.5C358.5,416.9,351.9,424.6,345.3,431.5z
	 M425,474.1c-2.1,1.3-4.9,1.9-8.2,1.9c-14.8,0-36.8-11.8-60.1-33.3c10-10.5,20-22.5,29.6-35.7c16.2-1.7,31.5-4.4,45.5-7.9
	c1.6,7.2,2.9,14.2,3.7,20.8C438.8,447.2,434.7,468.5,425,474.1z M463,372.1c-6.2,2.6-12.9,5-19.8,7.2c-4.1-14-9.4-28.6-16.1-43.6
	c6.6-14.9,11.9-29.4,15.9-43.4c7.1,2.2,13.8,4.7,20.1,7.3c25.3,10.8,41.7,25,41.7,36.2C504.7,347.2,488.3,361.4,463,372.1z"/>
<g>
	<path class="st1" d="M443.9,506.4H247.1L148.7,336l98.4-170.4h196.8L542.3,336L443.9,506.4z M254.7,493.3h181.6L527.1,336
		l-90.8-157.3H254.7L163.9,336L254.7,493.3z"/>
</g>
<text transform="matrix(1 0 0 1 662.8496 418.2853)" class="st0 st2 st3">ÐAppStore</text>
</svg>
