<?xml version="1.0" encoding="utf-8"?>
<!-- Generator: Adobe Illustrator 22.1.0, SVG Export Plug-In . SVG Version: 6.00 Build 0)  -->
<svg version="1.1" id="stripes" xmlns="http://www.w3.org/2000/svg" xmlns:xlink="http://www.w3.org/1999/xlink" x="0px" y="0px"
	 viewBox="0 0 430.3 356.1" style="enable-background:new 0 0 430.3 356.1;" xml:space="preserve">
<style type="text/css">
	.st0{fill:#ACA08E;}
	.st1{opacity:0.3;}
	.st2{fill:#00B3DB;}
	.st3{fill:none;stroke:#00B3DB;stroke-width:7;stroke-miterlimit:10;}
	.st4{fill:#F7E07D;}
	.st5{fill:#FFCD05;}
	.st6{fill:#4D4D4F;stroke:#000000;stroke-width:0.7947;stroke-miterlimit:10;}
	.st7{fill:#ED228B;}
	.st8{fill:#444545;}
	.st9{fill:#FFFFFF;}
	.st10{fill:#BA6E29;}
	.st11{fill:#4D4D4F;stroke:#000000;stroke-width:0.6122;stroke-miterlimit:10;}
	.st12{fill:#FAB594;}
	.st13{fill:#D3957C;}
	.st14{fill:#F8CDBC;}
	.st15{fill:#FFD8A2;}
	.st16{fill:#ED238B;stroke:#ED238B;stroke-width:4;stroke-miterlimit:10;}
	.st17{fill:#ED238B;stroke:#ED238B;stroke-width:3.719;stroke-miterlimit:10;}
	.st18{fill:#E298C2;stroke:#000000;stroke-linecap:round;stroke-linejoin:round;stroke-miterlimit:10;}
	.st19{fill:#78993D;stroke:#000000;stroke-miterlimit:10;}
	.st20{fill:#E64765;}
	.st21{fill:none;stroke:#000000;stroke-linecap:round;stroke-linejoin:round;stroke-miterlimit:10;}
	.st22{fill:none;stroke:#000000;stroke-miterlimit:10;}
	.st23{stroke:#000000;stroke-miterlimit:10;}
	.st24{fill:#5A5B5D;}
	.st25{fill:#F7A3A2;stroke:#000000;stroke-miterlimit:10;}
	.st26{fill:#F7A3A2;}
	.st27{stroke:#000000;stroke-width:0.7798;stroke-miterlimit:10;}
	.st28{fill:#F7A3A2;stroke:#000000;stroke-width:0.7798;stroke-miterlimit:10;}
	.st29{fill:#ED238B;stroke:#000000;stroke-miterlimit:10;}
	.st30{fill:#EE70AB;}
</style>
<ellipse class="st0" cx="222.5" cy="332.6" rx="79.4" ry="13.2"/>
<g class="st1">
	<circle class="st2" cx="63.3" cy="228.6" r="44.3"/>
	<circle class="st2" cx="52.9" cy="314.9" r="28.8"/>
	<circle class="st2" cx="77.6" cy="139.7" r="34.2"/>
	<circle class="st2" cx="114.8" cy="73" r="28.8"/>
	<circle class="st2" cx="188.6" cy="43.5" r="33.8"/>
	<circle class="st2" cx="274" cy="46.2" r="28.8"/>
	<circle class="st2" cx="339.2" cy="91.6" r="28.8"/>
	<circle class="st2" cx="377.7" cy="168" r="34.6"/>
	<circle class="st2" cx="389.8" cy="239.1" r="28.8"/>
	
		<ellipse transform="matrix(0.1602 -0.9871 0.9871 0.1602 7.8836 639.059)" class="st2" cx="379.5" cy="314.9" rx="28.8" ry="28.8"/>
	<polyline class="st3" points="52.9,317.9 219.6,238.1 88.4,228.2 	"/>
	<polyline class="st3" points="77.6,141.7 219.6,238.1 114.8,73 	"/>
	<polyline class="st3" points="188.6,43.5 216.3,216.5 274,46.2 	"/>
	<polyline class="st3" points="338,92.1 219.6,238.1 372.1,162.7 	"/>
	<polyline class="st3" points="396.1,237.9 236.2,248.1 372.1,311.9 	"/>
</g>
<path d="M291.3,286.4c0,0-7.5,5.2-3,8.8c4.5,3.6,4.9,5.7,4.9,5.7S298.5,295.7,291.3,286.4z"/>
<g>
	<path class="st4" d="M255.2,250.6c0,0-16,38,11.2,50.8c0,0,5.8,3.2,9.4-4.1c0-0.1,0.1-0.2,0.2-0.3c1.1-2.1,2.1-4.6,3.2-6.7
		c1.2-2.2,2.5-4,4.3-4.8c3.5-1.5,7,2.6,7.6,6.3c0,0-3.5-3.6-5.9-2.7s-3.6,5.7-5,9.9c-1.3,4.3-6.6,12.4-18.5,7.6
		c-21-8.4-24-42.9-24-42.9"/>
	<path d="M268.5,308.5c-3.9,0-7.5-1.3-9.9-2.6c-19.6-11.1-21.5-41.9-21.5-42.3l1.1-0.1c0,0.3,3.2,34.3,23.6,42.5
		c4.4,1.8,8.2,1.9,11.4,0.4c3.5-1.6,5.5-5,6.4-7.6l0.4-1.2c1.3-4.2,2.5-8.2,4.9-9.1c1.7-0.6,3.7,0.5,5,1.6c-0.7-1.6-1.9-3.1-3.2-3.8
		c-1.1-0.6-2.1-0.7-3.1-0.2c-1.4,0.6-2.6,2-4,4.6c-0.6,1.1-1.2,2.4-1.7,3.6c-0.5,1.1-1,2.2-1.5,3.2c0,0.1-0.1,0.1-0.1,0.2
		c0,0,0,0.1-0.1,0.1c-1.2,2.5-2.9,4.2-4.9,4.8c-2.8,0.9-5.2-0.4-5.3-0.5c-27.3-12.9-11.6-51.1-11.4-51.5l1,0.4
		c-0.2,0.4-15.5,37.7,10.9,50.1c0,0,2.1,1.2,4.5,0.7c4-0.8,5.6-6.3,6-7.5c1.5-3.6,2.8-6,4.9-8.1c1-1,3.6-1.4,5-0.6
		c2.1,1.1,4.1,3.6,4.6,6.2l0.3,1.8l-1.2-1.3c-0.9-0.9-3-3.9-4.6-3.3c-1.9,0.7-3.3,1.7-4.9,9.1l-0.4,1.2c-0.9,2.8-3.2,6.5-6.9,8.3
		C272.2,308.1,270.4,308.5,268.5,308.5z"/>
</g>
<path class="st5" d="M248.3,288.5c0,0,9.8,18,20.5,17.8c0,0,4.5,0.2,6.5-1.5s-2.2,6-13.4,1.2c-11.6-5-13.6-13.5-14.1-14.5
	S248.3,288.5,248.3,288.5z"/>
<g>
	<path d="M406.2,321c0,0-6.4,4.4-2.5,7.5c3.9,3,4.2,4.8,4.2,4.8S412.3,328.9,406.2,321z"/>
	<g>
		<path class="st4" d="M375.5,290.5c0,0-13.6,32.3,9.5,43.2c0,0,5,2.7,8-3.5c0-0.1,0.1-0.2,0.1-0.3c0.9-1.7,1.8-3.9,2.7-5.7
			c1-1.9,2.1-3.4,3.6-4.1c3-1.3,5.9,2.2,6.5,5.3c0,0-3-3.1-5-2.3c-2,0.8-3.1,4.8-4.2,8.4S391.1,342,381,338
			c-17.8-7.2-20.4-36.5-20.4-36.5"/>
		<path d="M386.8,339.8c-3.3,0-6.4-1.1-8.4-2.2c-16.7-9.5-18.2-35.6-18.3-35.9l0.9-0.1c0,0.3,2.7,29.1,20.1,36.1
			c3.7,1.5,7,1.6,9.7,0.3c2.9-1.4,4.7-4.3,5.4-6.5l0.3-1c1.1-3.6,2.1-7,4.2-7.7c1.4-0.5,3.1,0.4,4.2,1.3c-0.6-1.4-1.6-2.6-2.7-3.3
			c-0.9-0.5-1.8-0.6-2.6-0.2c-1.2,0.5-2.2,1.7-3.4,3.9c-0.5,1-1,2-1.5,3.1c-0.4,0.9-0.8,1.8-1.3,2.7l-0.1,0.1c0,0,0,0.1-0.1,0.1
			c-1.1,2.2-2.5,3.5-4.2,4.1c-2.3,0.7-4.4-0.3-4.5-0.4c-23.2-10.9-9.8-43.4-9.7-43.8l0.9,0.4c-0.1,0.3-13.1,32,9.2,42.6
			c0,0,1.8,1,3.8,0.6c3.4-0.7,4.7-5.4,5.1-6.3c1.3-3.1,2.3-5.1,4.1-6.9c0.9-0.9,3.1-1.2,4.2-0.5c1.8,1,3.5,3,3.9,5.3l0.2,1.5
			l-1.1-1.1c-0.8-0.8-2.5-3.4-3.9-2.8c-1.6,0.6-2.8,1.4-4.2,7.8l-0.3,1c-0.7,2.4-2.7,5.5-5.9,7.1
			C389.9,339.4,388.4,339.8,386.8,339.8z"/>
	</g>
	<path class="st5" d="M369.6,322.8c0,0,8.3,15.3,17.4,15.1c0,0,3.8,0.2,5.5-1.3s-1.9,5.1-11.3,1c-9.9-4.2-11.6-11.4-12-12.3
		C368.8,324.5,369.6,322.8,369.6,322.8z"/>
</g>
<path class="st6" d="M265.2,274.2c0,0,8.8,8.5,7,13.2s-7.2,5.4-7.9,3.8c-0.7-1.6,0.3,2.8-5.5,1.3c-3.3-0.9,1.6-12.3,1.6-12.3
	S264.4,281.9,265.2,274.2z"/>
<path class="st6" d="M178,275.6c0,0-8.8,8.5-7,13.2s7.2,5.4,7.9,3.8c0.7-1.6-0.3,2.8,5.5,1.3c3.3-0.9-1.6-12.3-1.6-12.3
	S178.9,283.3,178,275.6z"/>
<g>
	<path class="st7" d="M232.3,327.9c0,0,1.4-14.3,11.5-16.7c10.1-2.3,14.5,14.7,14.5,14.7S249.2,338.4,232.3,327.9z"/>
	<path d="M245.2,332.5c-3.7,0-8.1-1.1-13.1-4.2l-0.2-0.1v-0.3c0-0.1,1.5-14.7,11.8-17c10.4-2.4,14.9,14.3,15,15l0.1,0.2l-0.1,0.2
		C258.6,326.4,253.9,332.5,245.2,332.5z M232.8,327.7c15.5,7,23.9-0.4,25.1-1.8c-0.5-1.9-4.9-16.3-14-14.2
		C234.9,313.8,233,325.8,232.8,327.7z"/>
</g>
<g>
	<path class="st7" d="M207.7,328.6c0,0-1.4-14.3-11.5-16.7c-10.1-2.3-14.5,14.7-14.5,14.7S190.8,339,207.7,328.6z"/>
	<path d="M194.8,333.2c-8.7,0-13.4-6.2-13.5-6.3l-0.1-0.2l0.1-0.2c0.2-0.7,4.6-17.4,15-15c10.3,2.4,11.8,16.9,11.8,17v0.3l-0.2,0.1
		C202.9,332.1,198.5,333.2,194.8,333.2z M182.2,326.5c1.2,1.5,10.1,8.5,25.1,1.8c-0.2-1.9-2.2-14-11.1-16
		C187.1,310.3,182.7,324.7,182.2,326.5z"/>
</g>
<g>
	<path d="M183.3,282.3L182,282c0.1-0.3,6.1-38.2,20.1-49v0.2C188,250.5,183.3,282,183.3,282.3z"/>
</g>
<path d="M178.8,292.2c0,0,0.8-3.7,0.1-5.9c-0.7-2.2,2,3.7,1.2,6.8C180.1,293.2,179.2,292.2,178.8,292.2z"/>
<path d="M263.6,291.3c-0.1,0.2,0.6-2.8,0.4-4.8c0,0,1.4,2.4,0.3,4.6C264.3,291.1,263.9,290.4,263.6,291.3z"/>
<path d="M194,332.4c0,0,3.8-5,3-9.3c-0.4-2.2,3,4.8,1.8,8.7C198.8,331.7,197.3,332.7,194,332.4z"/>
<path d="M242.5,331.5c0,0,0.7-5.9,2.4-8.2c0,0,0.7,7.6,3,8.2C247.9,331.5,245,332.3,242.5,331.5z"/>
<g>
	<g>
		<path class="st7" d="M48.3,326.8c0,0-1.4-14.3-11.5-16.7c-10.1-2.3-14.5,14.7-14.5,14.7S31.4,337.2,48.3,326.8z"/>
		<path d="M35.4,331.4c-8.7,0-13.4-6.2-13.5-6.3l-0.1-0.2l0.1-0.2c0.2-0.7,4.6-17.4,15-15c10.3,2.4,11.8,16.9,11.8,17v0.3l-0.2,0.1
			C43.5,330.3,39.1,331.4,35.4,331.4z M22.7,324.7c1.2,1.5,10.1,8.5,25.1,1.8c-0.2-1.9-2.2-14-11.1-16
			C27.7,308.5,23.3,322.9,22.7,324.7z"/>
	</g>
	<path d="M34.5,330.6c0,0,3.8-5,3-9.3c-0.4-2.2,3,4.8,1.8,8.7C39.4,329.9,37.9,330.9,34.5,330.6z"/>
</g>
<g>
	<g>
		<path class="st7" d="M55.9,326.1c0,0,1.4-14.3,11.5-16.7c10.1-2.3,14.5,14.7,14.5,14.7S72.8,336.6,55.9,326.1z"/>
		<path d="M68.8,330.7c-3.7,0-8.1-1.1-13.1-4.2l-0.2-0.1v-0.3c0-0.1,1.5-14.7,11.8-17c10.4-2.4,14.9,14.3,15,15l0.1,0.2l-0.1,0.2
			C82.2,324.5,77.5,330.7,68.8,330.7z M56.3,325.9c15.5,7,23.9-0.4,25.1-1.8c-0.5-1.9-4.9-16.3-14-14.2
			C58.5,312,56.6,324,56.3,325.9z"/>
	</g>
	<path d="M66.1,329.7c0,0,0.7-5.9,2.4-8.2c0,0,0.7,7.6,3,8.2C71.4,329.7,68.6,330.5,66.1,329.7z"/>
</g>
<path class="st8" d="M195.6,207.5c0,0-10.7-8.3-18.3,71.3c0,0,0.7,3.3,5.7,3.3c0,0,2.2-10.5,2.8-11.2c1-1,3.5,1.8,6.2,11.5
	s2.3,30,2.3,30s4.7,1,5.7,4.3l6.3-32.7c0,0,11,5.7,29.7-1l6.7,33.7c0,0,2-5.7,5-4.7c0,0,1.7-31,5-38c0,0,7.3-3.7,5.3-8l2.7,15l7-3
	c0,0-6.3-72-21.3-69.3C246.3,208.8,218.9,221.5,195.6,207.5z"/>
<path class="st9" d="M261.3,255.7c-0.6,1.7-2.5,3.1-2.1,4.9c0.2,1.1,1.2,1.8,2.2,2.1s3,1.2,4.1,1.1c0-4.7-0.1-16.9-4.7-17.6
	c-3.5-0.6-2.8,2.7-1.8,4.3C260,252.3,262.4,252.7,261.3,255.7z"/>
<path class="st9" d="M203.2,245.5c1,1.1,1.2,2.8,0.7,4.2c-0.5,1.4-1.4,2.6-2.5,3.6c-0.9,0.9-1.9,1.8-2,3c-0.2,1.3,0.7,2.5,1,3.8
	c1.3,4.5-3.5,8.6-3.2,13.3c0.1,1.4,0.6,2.7,0.9,4.1c0.2,1.4,0.1,2.9-0.9,3.9c-1.4,0.4-2.6-0.7-3.9-1.2c-3.7-1.6-3.5-5.8-5.7-7.3
	c-0.4-0.3-1-1.4-1.2-1.9c-0.5-0.8-1.1,2-1,1.1c1.2-7.2,2.9-14.9,5.7-21.6C192.8,246.7,199.4,241.3,203.2,245.5z"/>
<path class="st9" d="M235.7,251.1c0.9-1,2.5-0.8,3.6,0s1.8,1.9,2.6,2.9c1.6,1.8,4,2.9,6.4,3.1c0.6,0,1.2,0,1.6-0.4s0.4-0.9,0.6-1.4
	c0.5-1.3,2.5-1.9,3.3-0.8c0.3,0.3,0.4,0.7,0.5,1.1c0.9,2.8,1.8,5.6,2.7,8.4c0.4,1.2,0,1.8,0.8,2.8c1.8,2.4-2.4,5-4.2,6.5
	c-2.4,1.9-4.4,3.8-8.8,4.6c-0.7,0.1,0.2,0.5-0.5,0.4c-0.6-0.1-3.8-0.7-4.1-1.1c-3.4-4-2.7-7-3.9-12.2c-0.4-1.6-0.5-3.2-1.2-4.7
	c-0.3-0.7-2.4-3.2-2.4-3.7C232.8,256,235,251.8,235.7,251.1z"/>
<g>
	<path d="M183.3,282.3L182,282c0.1-0.3,6.1-38.2,20.1-49v0.2C188,250.5,183.3,282,183.3,282.3z"/>
</g>
<g>
	<path class="st10" d="M257.9,266.2c0,0-6.3-24-14.7-33.7"/>
	<path d="M260.1,280.8c-0.1-0.2-5.8-29-17.2-48l0.4-0.1c14.8,18.8,17.4,47.6,17.7,48.6L260.1,280.8z"/>
</g>
<path d="M178.8,292.2c0,0,0.8-3.7,0.1-5.9c-0.7-2.2,2,3.7,1.2,6.8C180.1,293.2,179.2,292.2,178.8,292.2z"/>
<path d="M263.6,291.3c-0.1,0.2,0.6-2.8,0.4-4.8c0,0,1.4,2.4,0.3,4.6C264.3,291.1,263.9,290.4,263.6,291.3z"/>
<path class="st9" d="M250.1,210.4c-1.3,2.5-5.7,3-5.7,5.8c0,3,4.9,3.1,6.7,5.6c0.8,1.2,0.9,2.7,1.4,4.1c0.5,1.3,2.2,2.5,3.4,1.6
	c0.4-3.9-4.4-9.7-6.5-14.5"/>
<path class="st9" d="M244.6,211.4c-1.9,0.2-3.9,0.3-5.5,1.1c-1.7,0.9-2.9,2.7-2.2,4.4c1.2,0.8,2.8,1,4.2,0.6
	c1.6-0.5,3.3-1.8,4.8-1.1c1.2,0.5,1.5,2.1,1,3.2s-1.4,2-2.3,2.9s-1.7,2-1.7,3.2c0,1.4,1.3,2.7,2.7,2.8c1.5,0.2,3-0.8,3.4-2.2
	c0.2-0.9,0.4-2.3,1.4-2.2c0.3,0,0.5,0.2,0.7,0.3c1.1,0.9,1.5,2.4,2.1,3.7c0.7,1.3,2.1,2.5,3.6,2.1c1.7-0.5,1.8-2.8,1.4-4.4
	c-1-4.2-2.6-8.3-4.9-12.1C250.6,209.2,249.7,211,244.6,211.4z"/>
<path class="st9" d="M190.1,223.8c-0.2,1.6-0.2,3.3,0.6,4.7c0.8,1.4,2.5,2.4,4,1.8c1.8-0.8,2.1-3.3,3.3-4.8c0.9-1.1,2.3-1.7,3.6-1.6
	c1.9,0.1,3.5,1.5,5.1,2.3c1.7,0.9,4.1,1.1,5.2-0.5c0.8-1.2,0.4-2.8-0.3-4.1c-0.3-0.5-0.6-1-0.6-1.6c0-1,1-1.7,1.1-2.7
	c0-1.5-1.9-2-3.4-2c-2.9-0.1-4.7-1.5-7-3.2c-3-2.1-5.7-3.1-8.3,0.5C191.3,215.6,190.5,220.3,190.1,223.8z"/>
<path class="st9" d="M229.8,230.5c2.7,1.2,2.9,4.6,3,7.4c0.1,2.7-0.4,5.5,0.2,8.2c-4.4,2.4-9.4-1.9-12.6-5.7c-1.7-2-3.7-4.6-2.7-7
	C220.6,225.9,229.8,230.5,229.8,230.5z"/>
<path class="st9" d="M202.4,294.7c-0.5-1-1.6-1.7-2.7-1.5c-1.1,0.3-1.8,1.7-1.1,2.6c-0.9,0.2-1.9,0.5-2.5,1.2s-0.8,1.9-0.1,2.6
	c0.3,0.3,0.7,0.5,1,0.8c0.8,0.7,0.7,2,0.4,3c-0.3,1-0.9,2-1,3c-0.1,1.1,0.6,2.3,1.6,2.4c1.1,0.1,1.8-1.1,2.2-2.1
	C201.5,303.9,203.9,297.8,202.4,294.7z"/>
<path class="st9" d="M179,263.8c0.6-2.8-1.3-14.8,4.6-11.7C188.9,254.8,178.7,265.3,179,263.8z"/>
<path class="st9" d="M241.4,307.5c-0.1-1.2-0.1-2.3-0.2-3.5c0-0.6-0.1-1.2,0.1-1.7c0.3-0.9,1.2-1.5,2.2-1.8c0.3-0.1,0.7-0.2,1-0.2
	c0.9,0.1,1.5,1,1.9,1.8c1.2,2.7,2,6,1.1,8.8c-0.2,0.7,0,0.2-0.1,0.3c-0.1,0.1,0.1,0.5,0,0.5c-0.7,0-1.8,0.1-2.3,0.7
	c-0.7,0.8-1.4,1.5-2.1,2.3c-0.7-3.3-1.6-6.5-2.6-9.7"/>
<path d="M200,318.8l-0.6-1.9c-0.9-3-5.3-4-5.3-4l-0.4-0.1v-0.4c0-0.2,0.2-25.5-5-35.7c-4-7.8-1.7-5.2-2.5-5.4c-0.1,0-0.1,0-0.2,0
	c-0.4,0.6-1.8,6.7-2.7,10.9l-0.1,0.4h-0.4c-5.3,0-6.1-3.7-6.1-3.7v-0.1v-0.1c5.6-58.6,12.9-73.4,16.7-75c1.3-0.5,2.2,3.2,2.3,3.4
	c22.8,13.7,49.9,1.4,50.2,1.3h0.1c1.5-0.3,3.4-2.5,4.8-1.4c3.8,3,9.2,19.3,12.9,40.5c2.8,15.7,4.1,30.5,4.1,30.7v0.3l-7.9,3.4
	l-2.1-11.9c-1.3,2.4-4.4,4.2-5.2,4.5c-3.2,7.1-4.9,37.4-4.9,37.7v0.6l-0.6-0.2c-2.5-0.8-4.4,4.3-4.4,4.4l-0.6,1.6l-6.9-34.8
	c-16.2,5.6-26.5,2.1-29,1.1L200,318.8z M194.7,312.1c1,0.3,2.9-0.4,4.3,1.6l6.9-30.3l0.6,0.3c0.1,0.1,12,3.5,29.3-1l0.5-0.2l7,31
	c0.8-1.6,1.8-2.1,3.9-1.9c0.2-4.3,0.4-30.1,3.5-36.6l1.6-1.1l0.1-0.1c0.1,0,5.1-2.6,5.4-5.7l-1-5.4l1.2,4.1c0.3,0.7,0.4,1.2,0.3,1.8
	l2.6,12l6.1-2.6c-0.5-4.8-5.7-58.8-17.1-67.5c-1.2-0.9-2.4-1.3-3.6-1.1c-1.5,0.7-28.3,12.3-51.1-1.4l0,0c0,0-0.5-0.4-1.4,0
	c-2.9,1.3-10.4,10.9-16.2,70.9c0.1,0.4,0.9,2.7,4.8,2.9c0.7-3.4,2.3-10.4,2.9-11c0.3-0.3,0.7-0.4,1.1-0.3c1.7,0.5,3.9,4.9,5.9,12
	C194.8,291.3,194.8,309.3,194.7,312.1z"/>
<g>
	<path class="st11" d="M95.8,244.6c0,0,6.8,6.5,5.4,10.1c-1.4,3.6-5.5,4.1-6.1,2.9s0.3,2.2-4.3,1c-2.6-0.7,1.2-9.5,1.2-9.5
		S95.1,250.5,95.8,244.6z"/>
	<path class="st11" d="M28.6,245.6c0,0-6.8,6.5-5.4,10.1c1.4,3.6,5.5,4.1,6.1,2.9s-0.3,2.2,4.3,1c2.6-0.7-1.2-9.5-1.2-9.5
		S29.2,251.6,28.6,245.6z"/>
	<g>
		<path d="M32.6,250.8l-1-0.2c0-0.2,4.7-29.4,15.5-37.7v0.2C36.3,226.3,32.7,250.6,32.6,250.8z"/>
	</g>
	<path d="M29.2,258.5c0,0,0.6-2.9,0.1-4.5c-0.5-1.7,1.5,2.8,0.9,5.3C30.2,259.2,29.5,258.5,29.2,258.5z"/>
	<path d="M94.5,257.7c-0.1,0.2,0.4-2.2,0.3-3.7c0,0,1.1,1.9,0.2,3.6C95.1,257.6,94.8,257.1,94.5,257.7z"/>
	<path class="st8" d="M42.1,193.2c0,0-8.2-6.4-14.1,55c0,0,0.5,2.6,4.4,2.6c0,0,1.7-8.1,2.2-8.6c0.7-0.7,2.7,1.4,4.8,8.9
		c2.1,7.5,1.8,23.1,1.8,23.1s3.6-0.2,4.4,2.3l4.9-24.2c0,0,8.5,4.4,22.9-0.8l5.1,23.9c0,0,1.5-2.4,3.9-1.6c0,0,1.3-23.9,3.9-29.3
		c0,0,5.6-2.8,4.1-6.2l2.1,11.6l5.4-2.3c0,0-4.9-55.5-16.4-53.4C81.2,194.2,60.1,204,42.1,193.2z"/>
	<path class="st9" d="M92.7,230.3c-0.5,1.3-1.9,2.4-1.6,3.8c0.2,0.8,0.9,1.4,1.7,1.6s2.3,1,3.1,0.9c0-3.6-0.1-13-3.6-13.6
		c-2.7-0.5-2.2,2.1-1.4,3.3C91.8,227.7,93.6,228.1,92.7,230.3z"/>
	<path class="st9" d="M48,222.5c0.8,0.8,0.9,2.1,0.5,3.2s-1.1,2-1.9,2.8c-0.7,0.7-1.4,1.4-1.6,2.3c-0.1,1,0.5,2,0.8,3
		c1,3.4-2.7,6.7-2.4,10.2c0.1,1.1,0.5,2.1,0.7,3.1c0.2,1.1,0.1,2.3-0.7,3c-1.1,0.3-2-0.5-3-1c-2.8-1.2-2.7-4.5-4.4-5.6
		c-0.3-0.2-0.7-1.1-1-1.4c-0.4-0.6-0.9,1.5-0.8,0.8c0.9-5.6,2.2-11.4,4.4-16.6C39.9,223.4,45.1,219.3,48,222.5z"/>
	<path class="st9" d="M73,226.8c0.7-0.8,1.9-0.6,2.8,0s1.4,1.5,2,2.2c1.3,1.4,3.1,2.3,4.9,2.4c0.4,0,0.9,0,1.2-0.3s0.3-0.7,0.5-1.1
		c0.4-1,1.9-1.5,2.6-0.6c0.2,0.2,0.3,0.6,0.4,0.9c0.7,2.2,1.4,4.3,2,6.5c0.3,0.9,0,1.4,0.6,2.2c1.4,1.8-1.8,3.8-3.2,5
		c-1.8,1.5-3.4,2.9-6.8,3.6c-0.5,0.1-3.3-0.3-3.6-0.6c-2.6-3.1-2.1-5.4-3-9.4c-0.3-1.2-0.4-2.5-0.9-3.6c-0.2-0.6-1.8-2.4-1.8-2.9
		C70.7,227.7,72.5,227.4,73,226.8z"/>
	<g>
		<path d="M32.6,250.8l-1-0.2c0-0.2,4.7-29.4,15.5-37.7v0.2C36.3,226.3,32.7,250.6,32.6,250.8z"/>
	</g>
	<g>
		<path class="st10" d="M78.9,212.5"/>
		<path class="st10" d="M90.2,238.4"/>
		<path d="M91.8,249.7c0-0.2-4.5-22.3-13.2-37h0.3c11.4,14.4,13.4,36.7,13.6,37.4L91.8,249.7z"/>
	</g>
	<path d="M29.2,258.5c0,0,0.6-2.9,0.1-4.5c-0.5-1.7,1.5,2.8,0.9,5.3C30.2,259.2,29.5,258.5,29.2,258.5z"/>
	<path d="M94.5,257.7c-0.1,0.2,0.4-2.2,0.3-3.7c0,0,1.1,1.9,0.2,3.6C95.1,257.6,94.8,257.1,94.5,257.7z"/>
	<path class="st9" d="M84.1,195.4c-1,1.9-4.4,2.3-4.4,4.5c0,2.3,3.8,2.4,5.1,4.3c0.6,0.9,0.7,2.1,1.1,3.1c0.4,1,1.7,1.9,2.6,1.2
		c0.3-3-3.4-7.4-5-11.2"/>
	<path class="st9" d="M79.9,196.2c-1.5,0.1-3,0.2-4.3,0.9c-1.3,0.7-2.2,2.1-1.7,3.4c0.9,0.6,2.1,0.8,3.2,0.5
		c1.3-0.4,2.5-1.4,3.7-0.8c0.9,0.4,1.1,1.6,0.8,2.5s-1.1,1.6-1.8,2.3c-0.7,0.7-1.3,1.5-1.3,2.5c0,1.1,1,2,2.1,2.2
		c1.1,0.1,2.3-0.6,2.6-1.7c0.2-0.7,0.3-1.7,1.1-1.7c0.2,0,0.4,0.1,0.6,0.3c0.9,0.7,1.1,1.9,1.6,2.9s1.6,1.9,2.7,1.6
		c1.3-0.4,1.4-2.1,1.1-3.4c-0.8-3.2-2-6.4-3.8-9.3C84.5,194.5,83.8,195.9,79.9,196.2z"/>
	<path class="st9" d="M37.9,205.7c-0.1,1.2-0.1,2.5,0.4,3.6s1.9,1.8,3.1,1.4c1.4-0.6,1.6-2.5,2.6-3.7c0.7-0.8,1.7-1.3,2.8-1.2
		c1.5,0.1,2.7,1.1,4,1.8c1.3,0.7,3.2,0.9,4-0.3c0.6-0.9,0.3-2.2-0.2-3.1c-0.2-0.4-0.5-0.8-0.5-1.2c0-0.8,0.8-1.3,0.8-2.1
		c0-1.1-1.5-1.5-2.6-1.5c-2.2-0.1-3.6-1.2-5.4-2.5c-2.3-1.6-4.4-2.4-6.4,0.4C38.9,199.4,38.2,203,37.9,205.7z"/>
	<path class="st9" d="M68.4,210.9c2.1,1,2.2,3.6,2.3,5.7c0,2.1-0.3,4.2,0.2,6.3c-3.4,1.8-7.2-1.4-9.7-4.4c-1.3-1.5-2.8-3.5-2.1-5.4
		C61.4,207.4,68.4,210.9,68.4,210.9z"/>
	<path class="st9" d="M47.4,260.4c-0.4-0.8-1.3-1.3-2.1-1.1c-0.8,0.2-1.4,1.3-0.8,2c-0.7,0.1-1.4,0.4-1.9,0.9s-0.6,1.4-0.1,2
		c0.2,0.2,0.6,0.4,0.8,0.6c0.6,0.6,0.6,1.5,0.3,2.3s-0.7,1.5-0.8,2.3s0.4,1.8,1.2,1.8s1.4-0.8,1.7-1.6
		C46.7,267.5,48.5,262.7,47.4,260.4z"/>
	<path class="st9" d="M29.4,236.6c0.4-2.2-1-11.4,3.6-9C37,229.7,29.1,237.8,29.4,236.6z"/>
	<path class="st9" d="M77.4,270.3c0-0.9-0.1-1.8-0.1-2.7c0-0.4,0-0.9,0.1-1.3c0.3-0.7,1-1.2,1.7-1.4c0.2-0.1,0.5-0.1,0.8-0.1
		c0.7,0.1,1.2,0.8,1.5,1.4c1,2.1,1.5,4.6,0.9,6.8c-0.2,0.5,0,0.2-0.1,0.2c-0.1,0.1,0.1,0.4,0,0.4c-0.6,0-1.4,0.1-1.7,0.5
		c-0.5,0.6-1.1,1.2-1.6,1.7c-0.5-2.5-1.2-5-2-7.5"/>
	<path d="M45.6,276l-0.5,0.5c-0.7-2.3-4.1-2.1-4.1-2.1l-0.3-0.1V274c0-0.2,0.2-19.6-3.9-27.5c-3.1-6-1.3-4-1.9-4.2
		c-0.1,0-0.1,0-0.1,0c-0.3,0.4-1.4,5.2-2.1,8.4l-0.1,0.3h-0.3c-4.1,0-4.7-2.8-4.7-2.9V248v-0.1c4.3-45.1,9.9-54.5,12.9-55.8
		c1-0.4,1.7,0.5,1.8,0.6c17.6,10.5,38.5,1.1,38.7,1h0.1c1.2-0.2,2.6-0.9,3.7-0.1c2.9,2.3,7.1,13.8,10,30.2
		c2.1,12.1,3.2,23.5,3.2,23.6v0.3l-6.1,2.6l-1.6-9.1c-1,1.9-3.4,3.2-4,3.5c-2.5,5.5-3.8,28.8-3.8,29v0.5L82,274
		c-1.9-0.6-3.4,1.3-3.4,1.4l-0.4,0.3l-5.3-23.8c-12.5,4.3-20.4,1.6-22.3,0.8L45.6,276z M41.5,273.8c0.8,0.2,2.2-0.3,3.3,1.2
		l5.3-23.3l0.4,0.2c0.1,0,9.3,2.7,22.6-0.8l0.4-0.1l5.4,23.9c0.6-1.2,1.4-1.6,3-1.5c0.2-3.3,0.3-23.2,2.7-28.2l1.2-0.9l0.1-0.1
		c0,0,3.9-2,4.2-4.4l-0.7-4.2l1,3.1c0.3,0.5,0.3,0.9,0.3,1.4l2,9.2l4.7-2c-0.3-3.7-4.4-45.3-13.1-52c-0.9-0.7-1.8-1-2.8-0.8
		c-1.1,0.5-21.8,9.5-39.3-1.1l0,0c0,0-0.4-0.3-1.1,0c-2.3,1-8,8.4-12.5,54.6c0.1,0.3,0.7,2.1,3.7,2.2c0.6-2.6,1.7-8,2.2-8.5
		c0.2-0.2,0.5-0.3,0.8-0.2c1.3,0.4,3,3.8,4.5,9.2C41.6,257.7,41.5,271.6,41.5,273.8z"/>
</g>
<ellipse class="st12" cx="221.3" cy="275.1" rx="24.6" ry="20.6"/>
<path d="M221.3,255c-13.3,0-24.1,9-24.1,20.1s10.8,20.1,24.1,20.1s24.1-9,24.1-20.1S234.6,255,221.3,255z M221.3,297.2
	c-13.9,0-25.2-10.5-25.2-22.2s11.1-20.8,24.9-20.8s25.4,9.1,25.4,20.8S235.2,297.2,221.3,297.2z"/>
<path class="st13" d="M201.5,285.9c0.2-7.1,9.8,1.3,19.5,1.1c12.8-0.2,18.8-5.8,19.5-0.4c0.6,4.1-9.9,9.4-19.6,9.4
	S201.4,290,201.5,285.9z"/>
<g>
	<path class="st12" d="M210.8,284.3c0,0-4.2,15.8-0.2,17.8c3.9,2.1,6.8-5.9,8-16.2"/>
	<path d="M211.9,303.1c-0.5,0-1.1-0.1-1.6-0.4c-4.2-2.2-0.4-16,0-17.5l0.8-2.2c-1.6,5.5-2.9,17.3-0.3,18.7c0.7,0.4,1.3,0.4,1.9,0.1
		c2.2-1.1,5-8.7,6-17l0.1,2.3c-0.7,6.2-2.3,14-5.6,15.7C212.8,303,212.3,303.1,211.9,303.1z"/>
</g>
<g>
	<path class="st12" d="M204.4,278c0,0-11.5,6-9.1,8.9s8.4,0.3,14.8-4.6"/>
	<path d="M198.2,288.6c-1.4,0-2.5-0.5-3.3-1.4c-0.4-0.5-0.5-1-0.4-1.6c0.6-3.2,9.8-7.1,10.7-7.6l-0.6,0.5c-2.4,1.2-8.7,5-9.1,7.3
		c-0.1,0.3,0,0.6,0.2,0.8c1.9,2.3,7.2,0.6,14.2-4.7l1.1-0.3C205.8,285.5,201.1,288.6,198.2,288.6z"/>
</g>
<g>
	<path class="st12" d="M234,284.3c0,0,9.9,8.4,11.7,5.1s-2.9-7.9-9.9-12"/>
	<path d="M244.2,290.7c-3.4,0-9.2-6-10-6.7l0.1-0.1c2,1.7,7.9,6.2,10.2,5.7c0.3-0.1,0.5-0.2,0.7-0.5c1.4-2.7-2.2-6.9-9.7-11.4
		l0.1-0.1c8.2,4.9,12.2,8.6,10.5,11.9c-0.3,0.5-0.8,0.9-1.4,1C244.5,290.7,244.4,290.7,244.2,290.7z"/>
</g>
<g>
	<path class="st12" d="M223.8,286c0,0,0.3,15.4,4.7,16.2c4.4,0.8,4.8-6.7,2.9-16.8"/>
	<path d="M229.1,302.9c-0.2,0-0.5,0-0.7-0.1c-4.7-0.9-5.1-15.1-5.1-16.8v-1.2c0.7,5.6,2.5,16.3,5.4,16.8c0.8,0.1,1.4,0,1.9-0.5
		c1.7-1.7,2-9.6,0.6-17.8l0.6,2.1c1.1,6.2,2.3,14-0.3,16.6C230.7,302.6,230,302.9,229.1,302.9z"/>
</g>
<ellipse transform="matrix(0.9921 -0.1256 0.1256 0.9921 -34.4002 26.9981)" class="st13" cx="196.9" cy="286.3" rx="1.3" ry="1"/>
<ellipse transform="matrix(0.7071 -0.7071 0.7071 0.7071 -132.418 256.9619)" class="st13" cx="244" cy="288.3" rx="1" ry="1.3"/>
<circle class="st13" cx="211.5" cy="300.7" r="1.2"/>
<circle class="st13" cx="229.1" cy="300.5" r="1.2"/>
<path class="st14" d="M237.3,265.7c0,4.5-7.3,0.8-16.3,0.8s-16.3,3.7-16.3-0.8s7.3-8.2,16.3-8.2C230,257.6,237.3,261.2,237.3,265.7z
	"/>
<g>
	<ellipse class="st12" cx="390.6" cy="236.5" rx="24.6" ry="20.6"/>
	<path d="M390.6,216.5c-13.3,0-24.1,9-24.1,20.1s10.8,20.1,24.1,20.1c13.3,0,24.1-9,24.1-20.1S403.9,216.5,390.6,216.5z
		 M390.6,258.7c-13.9,0-25.2-10.5-25.2-22.2s11.1-20.8,24.9-20.8c13.8,0,25.4,9.1,25.4,20.8S404.5,258.7,390.6,258.7z"/>
	<path class="st13" d="M370.9,247.4c0.2-7.1,9.8,1.3,19.5,1.1c12.8-0.2,18.8-5.8,19.5-0.4c0.6,4.1-9.9,9.4-19.6,9.4
		C380.5,257.5,370.7,251.5,370.9,247.4z"/>
	<g>
		<path class="st12" d="M380.1,245.8c0,0-4.2,15.8-0.2,17.8c3.9,2.1,6.8-5.9,8-16.2"/>
		<path d="M381.2,264.6c-0.5,0-1.1-0.1-1.6-0.4c-4.2-2.2-0.4-16,0-17.5l0.8-2.2c-1.6,5.5-2.9,17.3-0.3,18.7c0.7,0.4,1.3,0.4,1.9,0.1
			c2.2-1.1,5-8.7,6-17l0.1,2.3c-0.7,6.2-2.3,14-5.6,15.7C382.2,264.5,381.7,264.6,381.2,264.6z"/>
	</g>
	<g>
		<path class="st12" d="M373.8,239.5c0,0-11.5,6-9.1,8.9s8.4,0.3,14.8-4.6"/>
		<path d="M367.5,250.1c-1.4,0-2.5-0.5-3.3-1.4c-0.4-0.5-0.5-1-0.4-1.6c0.6-3.2,9.8-7.1,10.7-7.6l-0.6,0.5c-2.4,1.2-8.7,5-9.1,7.3
			c-0.1,0.3,0,0.6,0.2,0.8c1.9,2.3,7.2,0.6,14.2-4.7l1.1-0.3C375.1,247,370.4,250.1,367.5,250.1z"/>
	</g>
	<g>
		<path class="st12" d="M403.3,245.8c0,0,9.9,8.4,11.7,5.1s-2.9-7.9-9.9-12"/>
		<path d="M413.5,252.2c-3.4,0-9.2-6-10-6.7l0.1-0.1c2,1.7,7.9,6.2,10.2,5.7c0.3-0.1,0.5-0.2,0.7-0.5c1.4-2.7-2.2-6.9-9.7-11.4
			l0.1-0.1c8.2,4.9,12.2,8.6,10.5,11.9c-0.3,0.5-0.8,0.9-1.4,1C413.9,252.1,413.7,252.2,413.5,252.2z"/>
	</g>
	<g>
		<path class="st12" d="M393.2,247.5c0,0,0.3,15.4,4.7,16.2c4.4,0.8,4.8-6.7,2.9-16.8"/>
		<path d="M398.5,264.3c-0.2,0-0.5,0-0.7-0.1c-4.7-0.9-5.1-15.1-5.1-16.8v-1.2c0.7,5.6,2.5,16.3,5.4,16.8c0.8,0.1,1.4,0,1.9-0.5
			c1.7-1.7,2-9.6,0.6-17.8l0.6,2.1c1.1,6.2,2.3,14-0.3,16.6C400,264.1,399.3,264.3,398.5,264.3z"/>
	</g>
	<ellipse transform="matrix(0.9921 -0.1256 0.1256 0.9921 -28.2126 47.9556)" class="st13" cx="366.2" cy="247.7" rx="1.3" ry="1"/>
	<ellipse transform="matrix(0.7071 -0.7071 0.7071 0.7071 -55.543 365.4551)" class="st13" cx="413.4" cy="249.8" rx="1" ry="1.3"/>
	<circle class="st13" cx="380.9" cy="262.2" r="1.2"/>
	<circle class="st13" cx="398.4" cy="262" r="1.2"/>
	<path class="st14" d="M406.6,227.2c0,4.5-7.3,0.8-16.3,0.8s-16.3,3.7-16.3-0.8s7.3-8.2,16.3-8.2S406.6,222.7,406.6,227.2z"/>
</g>
<g>
	<path class="st5" d="M243.1,135.2c0,0,12.1-11.1,25-8.7c12.9,2.4,3.4,27.4-22.3,19.3"/>
	<path d="M254.1,147.9c-2.5-0.1-5.3-0.6-8.4-1.6l0.3-1c13.5,4.3,20.9-1.1,23.4-3.7c3.2-3.2,3.6-6.4,2.6-9.6c-0.7-2.2-1.5-3.6-4-4.1
		c-12.5-2.4-24.4,7.5-24.5,7.6l-0.7-0.7c0.1-0.1,3.1-2.9,7.8-5.3c4.3-2.3,10.9-4.8,17.7-3.5c2.9,0.6,5,2.3,5.8,4.9
		c1.1,3.6-0.4,8.1-3.9,11.6C268,144.5,262.9,148.4,254.1,147.9z"/>
</g>
<path class="st15" d="M247.6,140.4c0,0,14.7,6,17.3-2.9c1.2-3.9-2.7-6.7-12.9-2.7C246,137.1,247.1,138.5,247.6,140.4z"/>
<g>
	<path class="st5" d="M196,135.3c0,0-4.2-0.6-9.4-2.1c-5.9-1.7-16-8.1-21.5-4.4c-5.6,3.9-4.2,15,8.6,18.4c8.7,2.3,14.5,0.4,21.7-6.2
		"/>
	<path d="M179,148.6c-1.7-0.1-3.4-0.4-5.3-0.9c-6.6-1.7-11-5.8-11.9-10.9c-0.6-3.4,0.6-6.6,3.2-8.4c4.2-2.9,10.8-0.1,16.6,2.3
		c1.9,0.8,3.8,1.6,5.3,2c5.1,1.5,9.3,2.1,9.3,2.1l-0.1,1c0,0-4.3-0.6-9.5-2.1c-1.6-0.5-3.4-1.2-5.4-2.1c-5.3-2.2-10.9-3.9-14.7-1.3
		c-2.2,1.5-3.3,4.4-2.8,7.4c0.8,4.7,4.1,7.4,10.3,9c8.4,2.2,13.9,0.6,21.2-6.1l0.7,0.7C189.9,146.8,185,149,179,148.6z"/>
</g>
<path class="st15" d="M192.1,137.6c0,0-6.7-1-13.9-3c-6-1.6-6.6,5.7-2.1,8C178.9,144.1,192.6,143.2,192.1,137.6z"/>
<g>
	<g>
		<path class="st5" d="M278.1,41.7c0,0,11.1-10.2,22.8-7.9c11.8,2.2,3.1,25.1-20.4,17.7"/>
		<path d="M288.2,53.3c-2.3-0.1-4.8-0.6-7.7-1.5l0.3-0.9c12.4,3.9,19.1-1,21.4-3.3c2.9-2.9,3.3-5.8,2.4-8.8c-0.6-2-1.3-3.3-3.7-3.8
			c-11.4-2.2-22.3,6.8-22.4,6.9l-0.6-0.7c0.1-0.1,2.9-2.6,7.1-4.9c3.9-2.1,9.9-4.4,16.1-3.2c2.7,0.5,4.6,2.1,5.3,4.4
			c1,3.3-0.4,7.4-3.6,10.6C300.9,50.2,296.2,53.8,288.2,53.3z"/>
	</g>
	<path class="st15" d="M282.2,46.5c0,0,13.4,5.4,15.8-2.7c1.1-3.6-2.5-6.1-11.8-2.5C280.8,43.5,281.8,44.7,282.2,46.5z"/>
	<g>
		<path class="st5" d="M272.4,41.7c0,0-3.8-0.5-8.6-1.9c-5.4-1.6-14.7-7.4-19.6-4c-5.1,3.5-3.8,13.7,7.8,16.8
			c8,2.1,13.3,0.4,19.8-5.6"/>
		<path d="M256.8,53.8c-1.5-0.1-3.2-0.4-4.9-0.8c-6-1.6-10.1-5.3-10.9-10c-0.5-3.1,0.6-6.1,2.9-7.7c3.9-2.7,9.9-0.1,15.2,2.1
			c1.8,0.7,3.4,1.4,4.8,1.9c4.6,1.4,8.5,1.9,8.5,1.9l-0.1,0.9c0,0-3.9-0.5-8.7-1.9c-1.4-0.4-3.1-1.1-4.9-1.9c-4.8-2-10-3.6-13.4-1.2
			c-2,1.4-3,4-2.5,6.8c0.7,4.3,3.7,6.8,9.4,8.3c7.7,2,12.7,0.6,19.4-5.5l0.6,0.7C266.8,52.1,262.3,54.1,256.8,53.8z"/>
	</g>
	<path class="st15" d="M268.8,43.8c0,0-6.1-0.9-12.7-2.7c-5.5-1.5-6,5.2-1.9,7.3C256.7,49.7,269.3,48.9,268.8,43.8z"/>
</g>
<path class="st8" d="M197.6,170.5c0,0-10.9-20.3-4.7-36.7c5.3-14,19.5-21.1,29-20.3c12,1,19.3,6,26,20c8.8,18.5-3.1,38.9-3.1,38.9
	s-2.4,11.2-19.2,12.8C208.8,186.9,199,171.6,197.6,170.5z"/>
<path class="st9" d="M194.5,130.3c-0.6,1-0.6,4-0.6,5.1c-0.1,1.6,0.1,3.7,1.7,4.1c0.5,0.1,1,0.1,1.5-0.1c4.3-1.1,6.6-5.8,10.4-8
	c0.5-0.3,1.2-0.6,1.8-0.4c0.5,0.1,0.9,0.5,1.3,0.8c1.6,1.3,3.8,2,5.8,1.8c2.1-0.3,4-1.8,4.5-3.8c0.2-0.8,0.2-1.6,0.4-2.3
	c0.5-1.4,1.7-2.3,3-3c0.4-0.2,0.8-0.4,1.1-0.8c0.7-0.9,0-2.3-1.1-2.8c-1-0.4-2.2-0.2-3.3,0c-1.1,0.2-2.3,0.4-3.3-0.1
	s-1.7-1.6-2.5-2.3c-2-1.7-4.9-1.6-7.5-1.4c0.1,1.7,0.1,3.5-0.4,5.1c-1.3,3.9-4.5,6.2-6.9,4.3C196.5,123.5,195.4,128.8,194.5,130.3z"
	/>
<path class="st9" d="M197.7,153.5c-0.5,0.4-1,0.6-1.4,1.1s-0.4,1.3,0.1,1.6c0.2,0.1,0.5,0.1,0.7,0.1c1.6,0.1,3,1.2,3.8,2.6
	s1.3,2.9,1.6,4.5c0.1,0.3,0.2,0.7,0,1c-0.2,0.4-0.7,0.5-1.2,0.5c-2,0.2-4,0.3-6,0.5c-0.1,0-0.2,0-0.3,0c-0.3-0.1-0.5-0.5-0.6-0.8
	c-1.3-4.6-3.2-8.5-0.5-12.9C197.1,146.2,201,150.9,197.7,153.5z"/>
<path class="st9" d="M246.5,140.9c-1-1.2-1.5-2.7-2.3-4.1c-0.8-1.3-2.1-2.6-3.6-2.6c-0.4,0-0.8,0.1-1.1,0.3
	c-1.1,0.8-0.5,2.6,0.5,3.5s2.3,1.5,2.9,2.7c0.9,1.9-0.6,4.3,0.2,6.2c0.4,0.8,1.1,1.3,1.6,2s0.9,1.5,1,2.3c0.2,1.2,0,2.5,0.4,3.7
	s1.7,2.2,2.8,1.6c0.7-0.4,0.9-1.4,1.1-2.2c0.5-3,1.1-6.1,1-9.1C250.9,141,248.7,143.6,246.5,140.9z"/>
<path d="M223.2,185.9c-13.2,0-21.5-9.9-24.8-13.8c-0.5-0.6-0.9-1.1-1.1-1.2l-0.1-0.2c-0.1-0.2-10.9-20.7-4.7-37.1
	c5.3-13.8,19.4-21.5,29.5-20.7c12.7,1.1,19.9,6.6,26.4,20.3c8.6,18-2.3,38-3,39.3c-0.3,1.1-3.4,11.6-19.6,13.2
	C224.8,185.9,224,185.9,223.2,185.9z M198,170.2c0.3,0.2,0.6,0.6,1.2,1.3c3.4,4,12.3,14.7,26.5,13.3c16.3-1.6,18.7-12,18.8-12.5
	l0.1-0.1c0.1-0.2,11.6-20.4,3-38.5c-6.4-13.3-13.3-17.7-25.6-18.7c-9.7-0.8-23.4,5.6-28.5,19C187.5,149.5,197.2,168.7,198,170.2z"/>
<g>
	<path class="st8" d="M168.3,60c0,0-8.8-16.5-3.8-29.8c4.3-11.4,15.9-17.2,23.5-16.5c9.7,0.8,15.7,4.9,21.1,16.2
		c7.2,15-2.5,31.6-2.5,31.6s-2.8,7.3-16.5,8.6C176.4,71.5,169.4,60.8,168.3,60z"/>
	<path class="st9" d="M165.8,27.3c-0.5,0.8-0.5,3.3-0.5,4.2c-0.1,1.3,0.1,3,1.3,3.3c0.4,0.1,0.8,0.1,1.2,0c3.5-0.9,5.3-4.7,8.5-6.5
		c0.4-0.2,0.9-0.5,1.4-0.4c0.4,0.1,0.7,0.4,1.1,0.6c1.3,1,3.1,1.7,4.7,1.4c1.7-0.2,3.2-1.5,3.6-3.1c0.2-0.6,0.1-1.3,0.3-1.9
		c0.4-1.1,1.4-1.9,2.4-2.4c0.3-0.2,0.7-0.3,0.9-0.6c0.5-0.7,0-1.9-0.9-2.2c-0.8-0.4-1.8-0.2-2.7,0c-0.9,0.2-1.9,0.3-2.7-0.1
		c-0.8-0.4-1.3-1.3-2.1-1.9c-1.6-1.4-4-1.3-6.1-1.2c0.1,1.4,0.1,2.8-0.3,4.2c-1,3.1-3.6,5-5.6,3.5C167.4,21.8,166.4,26.1,165.8,27.3
		z"/>
	<path class="st9" d="M168.3,46.1c-0.4,0.3-0.8,0.5-1.2,0.9c-0.3,0.4-0.4,1,0.1,1.3c0.2,0.1,0.4,0.1,0.6,0.1c1.3,0.1,2.4,1,3.1,2.1
		s1,2.4,1.3,3.6c0.1,0.3,0.1,0.6,0,0.8c-0.2,0.3-0.6,0.4-0.9,0.4c-1.6,0.1-3.2,0.3-4.8,0.4c-0.1,0-0.2,0-0.3,0
		c-0.3-0.1-0.4-0.4-0.4-0.6c-1.1-3.7-2.6-6.9-0.4-10.5C167.9,40.2,171,44,168.3,46.1z"/>
	<path class="st9" d="M207.9,35.9c-0.8-1-1.2-2.2-1.8-3.3c-0.6-1.1-1.7-2.1-2.9-2.1c-0.3,0-0.7,0.1-0.9,0.3
		c-0.9,0.6-0.4,2.1,0.4,2.8s1.9,1.2,2.3,2.2c0.7,1.6-0.5,3.5,0.2,5c0.3,0.6,0.9,1.1,1.3,1.6c0.4,0.6,0.7,1.2,0.8,1.9
		c0.2,1,0,2,0.3,3s1.4,1.8,2.3,1.3c0.6-0.3,0.8-1.1,0.9-1.8c0.4-2.4,0.9-4.9,0.8-7.4C211.5,36,209.8,38.1,207.9,35.9z"/>
	<path d="M188.1,70.7c-10.7,0-16.6-6.2-19.2-9.4c-0.4-0.5-0.7-0.9-0.9-1l-0.1-0.1c-0.1-0.2-8.9-16.8-3.8-30.1
		c4.3-11.2,15.8-17.5,24-16.8c10.3,0.9,16.1,5.3,21.4,16.5c7,14.6-1.9,30.9-2.5,31.9c-0.2,0.9-3.6,7.6-16.8,8.9
		C189.5,70.6,188.8,70.7,188.1,70.7z M168.6,59.7c0.2,0.2,0.5,0.5,0.9,1.1c2.7,3.3,9.1,10.1,20.6,9c13.2-1.3,16.1-7.9,16.1-8.3v-0.1
		c0.1-0.2,9.4-16.6,2.5-31.2c-5.2-10.8-10.8-14.4-20.8-15.2c-7.9-0.7-19,4.6-23.1,15.4C160.1,42.9,168,58.5,168.6,59.7z"/>
</g>
<g>
	<g>
		<ellipse class="st9" cx="213" cy="155.8" rx="12" ry="17.2"/>
		<path d="M213,174.6c-7.4,0-12.9-8.7-12.9-19.1s5.5-19.4,12.9-19.4s12.6,8.6,12.6,18.9S220.4,174.6,213,174.6z M213,140.1
			c-5.8,0-10.5,7.1-10.5,15.7s4.7,15.8,10.5,15.8s10.5-7.1,10.5-15.8S218.8,140.1,213,140.1z"/>
	</g>
	<g>
		<ellipse class="st9" cx="231.7" cy="154.8" rx="12" ry="17.2"/>
		<path d="M231.7,173.6c-7.4,0-13.4-10.7-13.4-21.1c0-10.3,6-17.4,13.4-17.4s12.8,8.9,12.8,19.2S239.2,173.6,231.7,173.6z
			 M231.7,139.1c-5.8,0-10.5,7.1-10.5,15.7s4.7,15.8,10.5,15.8s10.5-7.1,10.5-15.8S237.5,139.1,231.7,139.1z"/>
	</g>
</g>
<g>
	<ellipse class="st9" cx="213" cy="155.8" rx="12" ry="17.2"/>
	<ellipse class="st9" cx="231.7" cy="154.8" rx="12" ry="17.2"/>
</g>
<ellipse class="st16" cx="213.7" cy="156.5" rx="5" ry="6.2"/>
<ellipse cx="213.7" cy="156.5" rx="5" ry="6.2"/>
<ellipse class="st16" cx="232" cy="156.5" rx="5" ry="6.2"/>
<ellipse cx="232" cy="156.5" rx="5" ry="6.2"/>
<ellipse class="st9" cx="230.5" cy="153.2" rx="2.4" ry="2.9"/>
<ellipse class="st9" cx="215.2" cy="153.2" rx="2.4" ry="2.9"/>
<g>
	<g>
		<g>
			<ellipse class="st9" cx="105.7" cy="73.6" rx="11.2" ry="16"/>
			<path d="M105.7,91c-6.9,0-12-8.1-12-17.7s5.1-18.1,12-18.1s11.7,8,11.7,17.6C117.3,82.5,112.6,91,105.7,91z M105.7,59
				c-5.4,0-9.8,6.6-9.8,14.6s4.4,14.6,9.8,14.6c5.4,0,9.8-6.6,9.8-14.6S111,59,105.7,59z"/>
		</g>
		<g>
			<ellipse class="st9" cx="123.1" cy="72.7" rx="11.2" ry="16"/>
			<path d="M123.1,90.1c-6.9,0-12.5-10-12.5-19.6s5.6-16.2,12.5-16.2c6.9,0,11.9,8.2,11.9,17.8S130,90.1,123.1,90.1z M123.1,58
				c-5.4,0-9.8,6.6-9.8,14.6s4.4,14.6,9.8,14.6c5.4,0,9.8-6.6,9.8-14.6S128.5,58,123.1,58z"/>
		</g>
	</g>
	<g>
		<ellipse class="st9" cx="105.7" cy="73.6" rx="11.2" ry="16"/>
		<ellipse class="st9" cx="123.1" cy="72.7" rx="11.2" ry="16"/>
	</g>
	<ellipse class="st17" cx="106.3" cy="74.3" rx="4.6" ry="5.8"/>
	<ellipse cx="106.3" cy="74.3" rx="4.6" ry="5.8"/>
	<ellipse class="st17" cx="123.4" cy="74.3" rx="4.6" ry="5.8"/>
	<ellipse cx="123.4" cy="74.3" rx="4.6" ry="5.8"/>
	<ellipse class="st9" cx="121.9" cy="71.1" rx="2.2" ry="2.7"/>
	<ellipse class="st9" cx="107.7" cy="71.1" rx="2.2" ry="2.7"/>
</g>
<path class="st18" d="M195.6,203.5c0,0,17.3,8.3,4.7,36c-8.3,18.2-14.7,28.3-14.7,28.3s35.7-14.3,71.3-1c0,0-17.7-33.7-16.3-54
	l-8.3,3.7c0,0-1.7,13.7-7.3,18.3c-5.7,4.7-12-8.7-9-18.7C215.9,216.2,202.6,196.8,195.6,203.5z"/>
<path class="st19" d="M189.9,207.8"/>
<path class="st20" d="M224.3,255c0,0,7.8-8.2,7.1-12.6c-0.7-4.5-8.8-2.7-8,2.1c0,0-4.1-6-7.6-1.7C212.3,247.1,220,254.7,224.3,255z"
	/>
<path class="st20" d="M248.3,259.8c0,0,1.2-2.5,1.7-5.4c0.1-0.7-0.7-1.9-1.3-3.7c-0.7-2-1.4-4.4-1.8-4.3c-2,0.7-4,3-2.6,5.3
	c0,0-5.1-3.5-6.5,1C236.4,257.2,244.7,260.9,248.3,259.8z"/>
<path class="st20" d="M196.6,264.4c0,0,4.1-0.5,4.8-1.1c1.3-1.2,1.1-3.1,0.7-4.2c-1-3.1-6.5-0.9-5.4,2.4c0,0-3.5-3.8-5.5-0.3
	c-0.8,1.4-0.2,2.9,0.9,4.3C192.4,266,194.3,264.8,196.6,264.4z"/>
<path class="st20" d="M211.8,221.4c0,0,1.1-3.3,0.3-4.5s-2.8,0.4-1.9,1.7c0,0-1.9-1.1-2.3,0.6C207.3,220.9,210.5,221.9,211.8,221.4z
	"/>
<path class="st20" d="M234.2,223.1c0,0,2.9-1.9,3.1-3.3c0.1-1.4-2.4-1.5-2.6,0c0,0-0.8-2.1-2.1-1.1
	C231.2,219.8,232.9,222.7,234.2,223.1z"/>
<path class="st20" d="M206.5,233.5c0,0,3.9-3,4-5.1c0.1-2.2-3.3-2.2-3.4,0.1c0,0-2.4-2.4-2.7-1c-0.4,1.9-0.6,2.3-0.4,3.1
	C204.4,232.1,205.6,233.2,206.5,233.5z"/>
<path class="st20" d="M239,230.9c0,0-3.9-3-4-5.1c-0.1-2.2,3.3-2.2,3.4,0.1c0,0,2.4-2.4,2.7-1c0.4,1.9,0.6,2.3,0.4,3.1
	C241.1,229.5,239.9,230.6,239,230.9z"/>
<path class="st20" d="M202.4,254c0,0-2.7-4.6-2-6.6c0.8-2,4.4-0.3,3.5,1.8c0,0,2.5-2.3,3.7,0C208.8,251.6,204.5,254.3,202.4,254z"/>
<path class="st20" d="M229.8,258.4c0,0-1.9-3.2-1.3-4.6s3-0.2,2.4,1.3c0,0,1.7-1.6,2.6,0C234.2,256.7,231.2,258.6,229.8,258.4z"/>
<path class="st20" d="M248.4,264.1c-0.4-0.1-0.4-0.7-0.3-1c0-1.2,2.2-1,2.2,0.3c0,0,0.9-1.7,2-0.7c0.5,0.5,0.4,1.3-0.1,2.1
	C251.7,265.5,248.9,264.2,248.4,264.1z"/>
<path class="st20" d="M211.9,241.9c0,0-3.7-1.1-4.2-2.6s2.2-2.3,2.8-0.7c0,0,0.2-2.5,2-1.8C214.2,237.5,213.2,241,211.9,241.9z"/>
<path class="st20" d="M240.5,246.2c0,0-4.5-1.4-5.1-3.1c-0.7-1.8,2.6-2.7,3.3-0.9c0,0,0.3-3,2.4-2.1S242.1,245.2,240.5,246.2z"/>
<path class="st20" d="M233.3,238.1c0,0-2.6-2.9-2.3-4.4c0.3-1.5,3-0.8,2.7,0.8c0,0,1.5-2,2.6-0.5
	C237.5,235.6,234.8,238.1,233.3,238.1z"/>
<path class="st20" d="M213.6,259.2c0,0-3.7-1.1-4.2-2.6c-0.5-1.5,2.2-2.3,2.8-0.7c0,0,0.2-2.5,2-1.8
	C215.8,254.8,214.8,258.4,213.6,259.2z"/>
<g>
	<path class="st18" d="M358.9,139.8c0,0,5.8,4.4-3.5,24.1c-8.5,18.1-14.7,28.3-14.7,28.3s35.7-14.3,71.3-1c0,0-17.7-33.7-16.3-54
		l-8.3,3.7c0,0-1.7,13.7-7.3,18.3c-5.7,4.7-12-8.7-9-18.7C371.1,140.6,366.7,137.4,358.9,139.8z"/>
	<path class="st19" d="M353.3,144.2"/>
</g>
<path class="st20" d="M379.5,179.4c0,0,7.8-8.2,7.1-12.6s-8.8-2.7-8,2.1c0,0-4.1-6-7.6-1.7C367.5,171.5,375.1,179.1,379.5,179.4z"/>
<path class="st20" d="M403.5,184.2c0,0,1.2-2.5,1.7-5.4c0.1-0.7-0.7-1.9-1.3-3.7c-0.7-2-1.4-4.4-1.8-4.3c-2,0.7-4,3-2.6,5.3
	c0,0-5.1-3.5-6.5,1C391.5,181.7,399.9,185.3,403.5,184.2z"/>
<path class="st20" d="M351.7,188.8c0,0,4.1-0.5,4.8-1.1c1.3-1.2,1.1-3.1,0.7-4.2c-1-3.1-6.5-0.9-5.4,2.4c0,0-3.5-3.8-5.5-0.3
	c-0.8,1.4-0.2,2.9,0.9,4.3C347.6,190.4,349.5,189.2,351.7,188.8z"/>
<path class="st20" d="M366.9,145.8c0,0,1.1-3.3,0.3-4.5c-0.8-1.2-2.8,0.4-1.9,1.7c0,0-1.9-1.1-2.3,0.6
	C362.5,145.3,365.7,146.3,366.9,145.8z"/>
<path class="st20" d="M389.4,147.5c0,0,2.9-1.9,3.1-3.3s-2.4-1.5-2.6,0c0,0-0.8-2.1-2.1-1.1S388.1,147.1,389.4,147.5z"/>
<path class="st20" d="M361.7,157.9c0,0,3.9-3,4-5.1c0.1-2.2-3.3-2.2-3.4,0.1c0,0-2.4-2.4-2.7-1c-0.4,1.9-0.6,2.3-0.4,3.1
	C359.6,156.5,360.8,157.5,361.7,157.9z"/>
<path class="st20" d="M394.1,155.3c0,0-3.9-3-4-5.1c-0.1-2.2,3.3-2.2,3.4,0.1c0,0,2.4-2.4,2.7-1c0.4,1.9,0.6,2.3,0.4,3.1
	C396.3,153.9,395.1,155,394.1,155.3z"/>
<path class="st20" d="M357.6,178.4c0,0-2.7-4.6-2-6.6c0.8-2,4.4-0.3,3.5,1.8c0,0,2.5-2.3,3.7,0C364,176,359.7,178.7,357.6,178.4z"/>
<path class="st20" d="M385,182.8c0,0-1.9-3.2-1.3-4.6s3-0.2,2.4,1.3c0,0,1.7-1.6,2.6,0C389.4,181.1,386.4,183,385,182.8z"/>
<path class="st20" d="M403.6,188.5c-0.4-0.1-0.4-0.7-0.3-1c0-1.2,2.2-1,2.2,0.3c0,0,0.9-1.7,2-0.7c0.5,0.5,0.4,1.3-0.1,2.1
	S404.1,188.6,403.6,188.5z"/>
<path class="st20" d="M367.1,166.2c0,0-3.7-1.1-4.2-2.6s2.2-2.3,2.8-0.7c0,0,0.2-2.5,2-1.8C369.3,161.9,368.3,165.4,367.1,166.2z"/>
<path class="st20" d="M395.7,170.6c0,0-4.5-1.4-5.1-3.1c-0.7-1.8,2.6-2.7,3.3-0.9c0,0,0.3-3,2.4-2.1S397.2,169.6,395.7,170.6z"/>
<path class="st20" d="M388.5,162.5c0,0-2.6-2.9-2.3-4.4c0.3-1.5,3-0.8,2.7,0.8c0,0,1.5-2,2.6-0.5C392.7,160,390,162.5,388.5,162.5z"
	/>
<path class="st20" d="M368.7,183.6c0,0-3.7-1.1-4.2-2.6s2.2-2.3,2.8-0.7c0,0,0.2-2.5,2-1.8C371,179.2,370,182.8,368.7,183.6z"/>
<g>
	<path class="st21" d="M358.9,139.8c0,0,5.8,4.4-3.5,24.1c-8.5,18.1-14.7,28.3-14.7,28.3s35.7-14.3,71.3-1c0,0-17.7-33.7-16.3-54
		l-8.3,3.7c0,0-1.7,13.7-7.3,18.3c-5.7,4.7-12-8.7-9-18.7C371.1,140.6,366.7,137.4,358.9,139.8z"/>
	<path class="st22" d="M353.3,144.2"/>
</g>
<g>
	<path class="st15" d="M188.5,179.6c0,0,11.8-10.8,33.5-12.5c16.6-1.3,31.8,10.8,35,14s6.5,15.2,0.8,22.8s-27.2,18-56.8,9
		S188.5,179.6,188.5,179.6z"/>
	<path d="M223.4,216.8c-6.7,0-14.3-1-22.6-3.5c-9.1-2.8-14.7-7.3-16.8-13.3c-3.4-9.9,3.8-20.2,4.1-20.7l0.1-0.1
		c0.1-0.1,12.1-10.9,33.8-12.6c16-1.3,31.3,10.1,35.4,14.1c3.2,3.2,6.9,15.4,0.8,23.4C254.2,209.3,241.8,216.8,223.4,216.8z
		 M188.8,179.9c-0.5,0.8-7,10.7-3.9,19.7c2,5.8,7.4,9,16.2,11.7c12.6,3.8,44.1,6.9,56.2-8.8c5.7-7.4,2.3-18.1-0.7-21.1
		c-4-4-18.9-15.1-34.6-13.9C201.3,169.2,189.6,179.2,188.8,179.9z"/>
</g>
<g>
	<path class="st15" d="M194.2,185.3c0,0-11.8-13.2-1.5-21.2s20,7.8,19.5,14.2"/>
	<path d="M193.8,185.7c-0.3-0.3-6.4-7.3-5.8-14.4c0.3-3,1.7-5.5,4.3-7.6c3.4-2.7,7.1-3,10.8-1.1c5.6,3,9.9,11.2,9.5,15.8v0.9
		c0.3-3.9-4.3-11.8-10-14.8c-3.3-1.8-6.6-1.4-9.7,1c-2.4,1.9-3.7,4.2-4,6.9c-0.6,6.6,5.5,13.6,5.5,13.7L193.8,185.7z"/>
</g>
<g>
	<path class="st15" d="M234.7,179.6c0,0,2.1-16.7,16.5-14.8c9,1.2-0.5,20.2-0.5,20.2"/>
	<path d="M251.2,185.3l-0.9,1.6c0.1-0.1,6.3-13.7,3.7-18.7c-0.6-1.1-1.5-1.7-2.8-1.9c-3.7-0.5-6.9,0.2-9.5,2.2
		c-5.3,4.1-7.4,11-7.4,11.1v-0.1c0-0.3,1.1-8.4,6.8-12.8c2.8-2.2,6.3-3,10.3-2.4c1.7,0.2,2.9,1,3.6,2.4
		C257.7,172.1,251.4,184.8,251.2,185.3z"/>
</g>
<path class="st23" d="M239.7,177.8c0.2,4,2.8,4.8,6.2,3.8s5.5-8.8,3-10.5S239.5,173.8,239.7,177.8z"/>
<path class="st23" d="M205.7,178.3c0.8-1.8-0.1-10.7-8.5-8.5c-7.8,2,0,11.4,4,11.5C204.3,181.4,204.9,180.1,205.7,178.3z"/>
<g>
	<path class="st15" d="M203.5,206.1c0,0,6,16.2,22.8,15s19.8-13.2,20.5-15.8"/>
	<path d="M224.4,221.6c-15.5,0-21.4-15.2-21.4-15.4l-1.4-3.7c0.1,0.2,8.2,18.5,24.3,17.3c10.5-0.8,17.5-5.2,20.2-14.4l0.4-1.9
		l0.2-0.5l0.2,0.2c-2.2,13.9-13.1,17.8-20.7,18.4C225.6,221.6,225,221.6,224.4,221.6z"/>
</g>
<g>
	<path class="st15" d="M200.7,196.4c0,0,23.3,12.7,46.2-1.7"/>
	<path d="M223.6,202.3c-16.1,0.1-24.9-6.9-25-7v-0.1c0.2,0.1,27.3,12.7,49.7-1.3l0.1,0.2C240.3,200.3,231,202.3,223.6,202.3z"/>
</g>
<g>
	<path d="M195.7,198c-3.8-4.6,1.8-7.1,1.9-7.1l0,0C197.4,191,193.7,193.1,195.7,198L195.7,198z"/>
</g>
<g>
	<path d="M249.1,190.4c5.5,2.4,1.5,7.1,1.5,7.2l0,0C250.7,197.4,253,193.9,249.1,190.4L249.1,190.4z"/>
</g>
<path class="st24" d="M194.8,176c0,0-1.6-2.5,0-4.6c1-1.3,4.5-2.3,7.3-1c0,0-4.2-0.2-5.6,1.9s-0.9,4.4-0.4,5.4
	C196.6,178.6,194.8,176,194.8,176z"/>
<path class="st24" d="M243,172.6c0,0,3.2-2.3,4.8-1.6s2.1,1.6,2.1,4.1c0,0-1.1-2.5-2.6-2.8C245.8,172.1,246.5,172.2,243,172.6z"/>
<path class="st25" d="M233.3,200.1c0,0,5.8,5.8,2.2,11.1s-8.2,2.1-8.2,2.1s-2.8-2.6-1.5-4.3c1.2-1.7,1.8-5.8,0-7.9
	C225.8,201.2,229.3,201.4,233.3,200.1z"/>
<g>
	<path class="st26" d="M230.1,200.9c0,0,2.3,3,1.3,6.3"/>
	<path d="M231.9,207.4l-0.7,1.4c0.9-3.1-1.5-7.5-1.5-7.6l0.8-0.6C230.6,200.7,232.8,204.3,231.9,207.4z"/>
</g>
<g>
	<g>
		<path class="st15" d="M50.8,130.3c0,0,9.2-8.4,26.1-9.7c12.9-1,24.8,8.4,27.3,10.9s5.1,11.9,0.6,17.7c-4.5,5.8-21.2,14-44.3,7
			C37.5,149.2,50.8,130.3,50.8,130.3z"/>
		<path d="M78,159.4c-5.3,0-11.2-0.8-17.6-2.8c-7.1-2.2-11.5-5.7-13.1-10.4c-2.6-7.7,2.9-15.8,3.2-16.1l0.1-0.1
			c0.1-0.1,9.5-8.5,26.4-9.8c12.5-1,24.4,7.8,27.6,11c2.5,2.5,5.4,12,0.6,18.3C102,153.5,92.3,159.4,78,159.4z M51,130.6
			c-0.4,0.6-5.5,8.3-3,15.4c1.5,4.5,5.8,7,12.6,9.1c9.8,3,34.4,5.4,43.8-6.9c4.4-5.8,1.8-14.1-0.6-16.4c-3.1-3.1-14.8-11.8-27-10.8
			C60.8,122.2,51.7,130,51,130.6z"/>
	</g>
	<g>
		<path class="st15" d="M55.2,134.8c0,0-9.2-10.3-1.2-16.6s15.6,6,15.2,11.1"/>
		<path d="M54.9,135.1c-0.2-0.2-5-5.7-4.5-11.2c0.2-2.3,1.4-4.3,3.4-5.9c2.7-2.1,5.6-2.4,8.4-0.9c4.3,2.3,7.7,8.7,7.4,12.3v0.7
			c0.2-3-3.4-9.2-7.8-11.6c-2.6-1.4-5.1-1.1-7.6,0.8c-1.9,1.4-2.9,3.3-3.1,5.4c-0.5,5.2,4.3,10.6,4.3,10.6L54.9,135.1z"/>
	</g>
	<g>
		<path class="st15" d="M86.8,130.3c0,0,1.7-13.1,12.9-11.5c7,1-0.4,15.8-0.4,15.8"/>
		<path d="M99.6,134.8l-0.7,1.2c0-0.1,4.9-10.7,2.9-14.6c-0.4-0.8-1.2-1.3-2.2-1.4c-2.9-0.4-5.4,0.2-7.4,1.7
			c-4.1,3.2-5.8,8.6-5.8,8.7v-0.1c0-0.3,0.9-6.6,5.3-10c2.2-1.7,4.9-2.3,8-1.9c1.3,0.2,2.2,0.8,2.8,1.9
			C104.7,124.5,99.9,134.4,99.6,134.8z"/>
	</g>
	<path class="st27" d="M90.7,128.9c0.2,3.1,2.1,3.7,4.9,2.9c2.7-0.8,4.3-6.8,2.3-8.2C96,122.3,90.5,125.8,90.7,128.9z"/>
	<path class="st27" d="M64.2,129.3c0.6-1.4-0.1-8.3-6.6-6.6c-6.1,1.6,0,8.9,3.1,9C63.1,131.7,63.6,130.7,64.2,129.3z"/>
	<g>
		<path class="st15" d="M62.5,151c0,0,4.7,12.7,17.7,11.7c13.1-1,15.4-10.3,16-12.3"/>
		<path d="M78.8,163.1c-12.1,0-16.7-11.9-16.7-12l-1.1-2.9c0,0.1,6.4,14.5,19,13.5c8.2-0.6,13.7-4,15.8-11.2l0.3-1.5l0.1-0.4
			l0.1,0.1c-1.8,10.9-10.2,13.9-16.1,14.3C79.7,163.1,79.3,163.1,78.8,163.1z"/>
	</g>
	<g>
		<path class="st15" d="M60.3,143.4c0,0,18.2,9.9,36-1.3"/>
		<path d="M78.2,148c-12.6,0.1-19.4-5.4-19.5-5.5v-0.1c0.2,0.1,21.3,9.9,38.7-1l0.1,0.1C91.2,146.4,83.9,148,78.2,148z"/>
	</g>
	<g>
		<path d="M56.4,144.7c-3-3.6,1.4-5.5,1.4-5.5l0,0C57.7,139.3,54.8,140.9,56.4,144.7L56.4,144.7z"/>
	</g>
	<g>
		<path d="M98,138.8c4.3,1.9,1.2,5.6,1.2,5.6l0,0C99.3,144.2,101.1,141.5,98,138.8L98,138.8z"/>
	</g>
	<path class="st24" d="M55.7,127.5c0,0-1.2-2,0-3.6c0.8-1,3.5-1.8,5.7-0.8c0,0-3.3-0.1-4.4,1.5c-1.1,1.6-0.7,3.4-0.3,4.2
		C57.1,129.6,55.7,127.5,55.7,127.5z"/>
	<path class="st24" d="M93.3,124.9c0,0,2.5-1.8,3.8-1.3c1.3,0.6,1.6,1.3,1.6,3.2c0,0-0.9-1.9-2-2.2C95.4,124.5,96,124.6,93.3,124.9z
		"/>
	<path class="st28" d="M85.7,146.3c0,0,4.5,4.5,1.8,8.7s-6.4,1.7-6.4,1.7s-2.1-2-1.2-3.3c1-1.3,1.4-4.5,0-6.2
		C79.9,147.2,82.6,147.3,85.7,146.3z"/>
	<g>
		<path class="st26" d="M83.2,146.9c0,0,1.8,2.3,1,4.9"/>
		<path d="M84.6,152l-0.5,1.1c0.7-2.4-1.2-5.9-1.2-5.9l0.6-0.5C83.6,146.8,85.3,149.6,84.6,152z"/>
	</g>
</g>
<path class="st29" d="M200.7,127.7c0,0-7.9-1.2-12.3-9.4c-4.3-8.2,0.2-17.3,0.2-17.3s1.6-2.8,3-0.8c1.1,1.5,1.3,3.2,1.9,6.9
	c0.2,1,1.2,5.8,5.6,8.1c4.4,2.2,8.3,3.2,8.3,3.2S210.3,126.2,200.7,127.7z"/>
<g>
	<path class="st29" d="M231.9,119.5c0,0,8.4-5.6,10.2-8c2.3-3,3.7-6.5,3.7-8.8c0-1.6,0.4-3.5,3.1-2.6s1.4,11.2,0.5,13.7
		s-3,10-8.9,12.4C234.7,128.7,232.2,122.8,231.9,119.5z"/>
	<path d="M237.6,127.3c-0.9,0-1.7-0.3-2.4-0.7c-2.3-1.4-3.6-4.5-3.8-7v-0.3l0.3-0.2c0.1-0.1,8.3-5.6,10.1-7.9
		c2.1-2.8,3.5-6.1,3.6-8.5c0-0.9,0.2-2.3,1.1-2.9c0.7-0.5,1.6-0.5,2.7-0.1c0.5,0.2,0.9,0.6,1.2,1.2c1.5,3.1,0.3,11-0.4,13.1
		c-0.1,0.2-1.7,8.4-9.2,12.7C239.7,127.3,238.6,127.4,237.6,127.3z M232.4,119.8c0.2,1.7,1.2,4.7,3.3,6c1.3,0.8,4-0.2,5.6-1.2
		c5.5-3,7.7-11.1,7.8-11.3c1.3-6.3,1.6-9.4,0.3-12c-0.2-0.4-0.4-0.6-0.7-0.7c-0.8-0.3-1.4-0.3-1.8,0s-0.9,0.7-0.9,1.8
		c-0.1,2.6-0.8,5.8-3.1,8.7C239.8,115.1,233.9,118.8,232.4,119.8z"/>
</g>
<path class="st30" d="M232.1,119.5c0,0,0.5,2.3,0.9,2.6c0.5,0.4,10.3-4.4,13.7-12.6c0,0,1.2-6.8-0.6-7.2
	C245.7,102.1,247.9,110.6,232.1,119.5z"/>
<path class="st30" d="M207.1,118.4c0,0,0.6,3.5-0.3,4.7c-0.6,0.8-10.2-1.3-14.3-9.5c-4.1-8.2-0.9-12.1-0.9-12.1s0.4-0.1,0.8,1.2
	C193.7,106.3,191.3,115.5,207.1,118.4z"/>
<g>
	<path class="st29" d="M328.2,104c0,0-7.9-1.2-12.3-9.4c-4.3-8.2,0.2-17.3,0.2-17.3s1.6-2.8,3-0.8c1.1,1.5,1.3,3.2,1.9,6.9
		c0.2,1,1.2,5.8,5.6,8.1c4.4,2.2,8.3,3.2,8.3,3.2S337.8,102.5,328.2,104z"/>
	<g>
		<path class="st29" d="M344.4,95.1c0,0,8.4-5.6,10.2-8c2.3-3,3.7-6.5,3.7-8.8c0-1.6,0.4-3.5,3.1-2.6s1.4,11.2,0.5,13.7
			s-3,10-8.9,12.4C347.2,104.3,344.8,98.4,344.4,95.1z"/>
		<path d="M350.2,102.9c-0.9,0-1.7-0.3-2.4-0.7c-2.3-1.4-3.6-4.5-3.8-7v-0.3l0.3-0.2c0.1-0.1,8.3-5.6,10.1-7.9
			c2.1-2.8,3.5-6.1,3.6-8.5c0-0.9,0.2-2.3,1.1-2.9c0.7-0.5,1.6-0.5,2.7-0.1c0.5,0.2,0.9,0.6,1.2,1.2c1.5,3.1,0.3,11-0.4,13.1
			c-0.1,0.2-1.7,8.4-9.2,12.7C352.3,102.9,351.1,102.9,350.2,102.9z M345,95.3c0.2,1.7,1.2,4.7,3.3,6c1.3,0.8,4-0.2,5.6-1.2
			c5.5-3,7.7-11.1,7.8-11.3c1.3-6.3,1.6-9.4,0.3-12c-0.2-0.4-0.4-0.6-0.7-0.7c-0.8-0.3-1.4-0.3-1.8,0s-0.9,0.7-0.9,1.8
			c-0.1,2.6-0.8,5.8-3.1,8.7C352.3,90.7,346.4,94.4,345,95.3z"/>
	</g>
	<path class="st30" d="M344.7,95.1c0,0,0.5,2.3,0.9,2.6c0.5,0.4,10.3-4.4,13.7-12.6c0,0,1.2-6.8-0.6-7.2
		C358.2,77.6,360.5,86.1,344.7,95.1z"/>
	<path class="st30" d="M334.6,94.7c0,0,0.6,3.5-0.3,4.7c-0.6,0.8-10.2-1.3-14.3-9.5s-0.9-12.1-0.9-12.1s0.4-0.1,0.8,1.2
		C321.2,82.6,318.8,91.8,334.6,94.7z"/>
</g>
</svg>
